<?xml version="1.0" standalone="no"?>
<!DOCTYPE svg PUBLIC "-//W3C//DTD SVG 20010904//EN"
 "http://www.w3.org/TR/2001/REC-SVG-20010904/DTD/svg10.dtd">
<svg version="1.0" xmlns="http://www.w3.org/2000/svg"
 width="334.000000pt" height="334.000000pt" viewBox="0 0 334.000000 334.000000"
 preserveAspectRatio="xMidYMid meet">
<metadata>
Created by potrace 1.14, written by Peter Selinger 2001-2017
</metadata>
<g transform="translate(0.000000,334.000000) scale(0.100000,-0.100000)"
fill="#000000" stroke="none">
<path d="M740 1697 l0 -244 41 -12 c23 -7 47 -15 55 -18 12 -4 14 30 14 211 0
187 2 216 15 216 23 0 29 -26 28 -117 0 -73 2 -82 21 -90 106 -47 145 164 42
226 -33 20 -129 54 -183 66 l-33 7 0 -245z"/>
<path d="M1334 1828 c-15 -23 17 -28 185 -28 131 0 181 -3 188 -12 21 -28 22
-49 4 -67 -17 -17 -34 -19 -161 -17 -193 2 -219 -14 -216 -129 1 -44 4 -50 25
-53 33 -5 43 9 45 67 1 28 7 56 14 63 9 9 60 14 171 16 148 3 160 5 179 25 35
38 30 106 -11 129 -25 15 -414 21 -423 6z"/>
<path d="M2028 1824 c-36 -19 -41 -36 -43 -142 -2 -121 -4 -123 -124 -123 -81
0 -92 -2 -89 -17 3 -15 18 -17 108 -18 106 -1 152 11 164 43 3 7 6 56 7 108 2
122 5 126 126 126 77 0 89 2 90 17 1 16 -11 18 -106 19 -72 0 -115 -4 -133
-13z"/>
<path d="M2335 1832 c-3 -3 -5 -34 -5 -68 0 -83 11 -94 98 -95 249 -2 263 -3
282 -26 19 -24 17 -55 -5 -73 -9 -7 -78 -11 -192 -11 -167 1 -179 0 -180 -18
-1 -17 9 -18 202 -17 201 1 204 1 229 25 35 33 36 92 1 126 -26 27 -24 27
-230 27 -60 0 -115 3 -122 5 -8 3 -13 23 -13 49 l0 44 190 0 c178 0 190 1 190
19 0 17 -12 18 -220 18 -121 0 -222 -3 -225 -5z"/>
<path d="M610 1609 c-100 -38 -120 -50 -120 -76 0 -24 63 -46 147 -51 l83 -5
0 33 c0 29 -2 32 -22 25 -40 -13 -111 -18 -104 -7 3 5 33 20 66 32 57 21 60
24 60 56 0 19 -1 34 -2 33 -2 0 -50 -18 -108 -40z"/>
<path d="M935 1616 c-5 -2 -22 -7 -37 -10 -24 -6 -28 -11 -28 -42 0 -30 3 -35
18 -29 62 25 130 45 145 43 36 -6 12 -24 -72 -54 -81 -29 -86 -33 -89 -63 -2
-17 0 -31 4 -31 14 0 259 92 271 102 24 19 14 45 -23 63 -33 15 -166 30 -189
21z"/>
<path d="M2876 1545 c-9 -26 -7 -32 5 -12 6 10 9 21 6 23 -2 3 -7 -2 -11 -11z"/>
<path d="M1093 1457 c-3 -6 -1 -7 5 -3 7 4 12 2 12 -3 0 -6 5 -11 10 -11 6 0
10 6 10 13 0 16 -28 18 -37 4z"/>
<path d="M1097 1429 c7 -7 15 -10 18 -7 3 3 -2 9 -12 12 -14 6 -15 5 -6 -5z"/>
</g>
</svg>
